{
    "asset" : {
        "generator" : "Khronos glTF Blender I/O v1.0.5",
        "version" : "2.0"
    },
    "scene" : 0,
    "scenes" : [
        {
            "name" : "Scene",
            "nodes" : [
                0
            ]
        }
    ],
    "nodes" : [
        {
            "mesh" : 0,
            "name" : "Circle"
        }
    ],
    "materials" : [
        {
            "doubleSided" : true,
            "name" : "Material.001",
            "normalTexture" : {
                "index" : 0,
                "texCoord" : 0
            },
            "pbrMetallicRoughness" : {
                "baseColorTexture" : {
                    "index" : 1,
                    "texCoord" : 0
                },
                "metallicFactor" : 0,
                "metallicRoughnessTexture" : {
                    "index" : 2,
                    "texCoord" : 0
                }
            }
        }
    ],
    "meshes" : [
        {
            "name" : "Circle",
            "primitives" : [
                {
                    "attributes" : {
                        "POSITION" : 0,
                        "NORMAL" : 1,
                        "TEXCOORD_0" : 2
                    },
                    "indices" : 3,
                    "material" : 0
                }
            ]
        }
    ],
    "textures" : [
        {
            "source" : 0
        },
        {
            "sampler" : 0,
            "source" : 1
        },
        {
            "source" : 2
        }
    ],
    "images" : [
        {
            "bufferView" : 4,
            "mimeType" : "image/png",
            "name" : "chimney_None_Normal"
        },
        {
            "bufferView" : 5,
            "mimeType" : "image/png",
            "name" : "chimney_None_BaseColor"
        },
        {
            "bufferView" : 6,
            "mimeType" : "image/png",
            "name" : "chimney_None_Roughness"
        }
    ],
    "accessors" : [
        {
            "bufferView" : 0,
            "componentType" : 5126,
            "count" : 279,
            "max" : [
                1.0956002473831177,
                9.5,
                1.0956001281738281
            ],
            "min" : [
                -1.0956001281738281,
                -0.5,
                -1.0956001281738281
            ],
            "type" : "VEC3"
        },
        {
            "bufferView" : 1,
            "componentType" : 5126,
            "count" : 279,
            "type" : "VEC3"
        },
        {
            "bufferView" : 2,
            "componentType" : 5126,
            "count" : 279,
            "type" : "VEC2"
        },
        {
            "bufferView" : 3,
            "componentType" : 5123,
            "count" : 1200,
            "type" : "SCALAR"
        }
    ],
    "bufferViews" : [
        {
            "buffer" : 0,
            "byteLength" : 3348,
            "byteOffset" : 0
        },
        {
            "buffer" : 0,
            "byteLength" : 3348,
            "byteOffset" : 3348
        },
        {
            "buffer" : 0,
            "byteLength" : 2232,
            "byteOffset" : 6696
        },
        {
            "buffer" : 0,
            "byteLength" : 2400,
            "byteOffset" : 8928
        },
        {
            "buffer" : 0,
            "byteLength" : 336117,
            "byteOffset" : 11328
        },
        {
            "buffer" : 0,
            "byteLength" : 309562,
            "byteOffset" : 347448
        },
        {
            "buffer" : 0,
            "byteLength" : 4427,
            "byteOffset" : 657012
        }
    ],
    "samplers" : [
        {
            "magFilter" : 9728,
            "minFilter" : 9984
        }
    ],
    "buffers" : [
        {
            "byteLength" : 661440,
            "uri" : "data:application/octet-stream;base64,"
        }
    ]
}
