{
    "asset" : {
        "generator" : "Khronos glTF Blender I/O v1.0.5",
        "version" : "2.0"
    },
    "scene" : 0,
    "scenes" : [
        {
            "name" : "Scene",
            "nodes" : [
                0
            ]
        }
    ],
    "nodes" : [
        {
            "mesh" : 0,
            "name" : "folkart_low.001",
            "rotation" : [
                0.7071068286895752,
                0,
                0,
                0.7071067094802856
            ]
        }
    ],
    "materials" : [
        {
            "doubleSided" : true,
            "name" : "Default_OBJ",
            "pbrMetallicRoughness" : {
                "baseColorTexture" : {
                    "index" : 0,
                    "texCoord" : 0
                },
                "metallicFactor" : 0,
                "roughnessFactor" : 1
            }
        }
    ],
    "meshes" : [
        {
            "name" : "folkart_low.001",
            "primitives" : [
                {
                    "attributes" : {
                        "POSITION" : 0,
                        "NORMAL" : 1,
                        "TEXCOORD_0" : 2
                    },
                    "indices" : 3,
                    "material" : 0
                }
            ]
        }
    ],
    "textures" : [
        {
            "source" : 0
        }
    ],
    "images" : [
        {
            "bufferView" : 4,
            "mimeType" : "image/png",
            "name" : "folkart_low_Default_OBJ_BaseColor"
        }
    ],
    "accessors" : [
        {
            "bufferView" : 0,
            "componentType" : 5126,
            "count" : 2985,
            "max" : [
                0.36051398515701294,
                0.3953680098056793,
                0.372173011302948
            ],
            "min" : [
                -0.36073198914527893,
                -0.484266996383667,
                -0.368120014667511
            ],
            "type" : "VEC3"
        },
        {
            "bufferView" : 1,
            "componentType" : 5126,
            "count" : 2985,
            "type" : "VEC3"
        },
        {
            "bufferView" : 2,
            "componentType" : 5126,
            "count" : 2985,
            "type" : "VEC2"
        },
        {
            "bufferView" : 3,
            "componentType" : 5123,
            "count" : 12606,
            "type" : "SCALAR"
        }
    ],
    "bufferViews" : [
        {
            "buffer" : 0,
            "byteLength" : 35820,
            "byteOffset" : 0
        },
        {
            "buffer" : 0,
            "byteLength" : 35820,
            "byteOffset" : 35820
        },
        {
            "buffer" : 0,
            "byteLength" : 23880,
            "byteOffset" : 71640
        },
        {
            "buffer" : 0,
            "byteLength" : 25212,
            "byteOffset" : 95520
        },
        {
            "buffer" : 0,
            "byteLength" : 1410589,
            "byteOffset" : 120732
        }
    ],
    "buffers" : [
        {
            "byteLength" : 1531324,
            "uri" : "data:application/octet-stream;base64,"
        }
    ]
}
