{
    "asset" : {
        "generator" : "Khronos glTF Blender I/O v1.0.5",
        "version" : "2.0"
    },
    "scene" : 0,
    "scenes" : [
        {
            "name" : "Scene",
            "nodes" : [
                0
            ]
        }
    ],
    "nodes" : [
        {
            "mesh" : 0,
            "name" : "pumpkin_low.000",
            "rotation" : [
                0.7071068286895752,
                0,
                0,
                0.7071067094802856
            ]
        }
    ],
    "materials" : [
        {
            "doubleSided" : true,
            "name" : "Default OBJ.001",
            "normalTexture" : {
                "index" : 0,
                "texCoord" : 0
            },
            "pbrMetallicRoughness" : {
                "baseColorTexture" : {
                    "index" : 1,
                    "texCoord" : 0
                },
                "metallicFactor" : 0,
                "metallicRoughnessTexture" : {
                    "index" : 2,
                    "texCoord" : 0
                }
            }
        }
    ],
    "meshes" : [
        {
            "name" : "pumpkin_low.000",
            "primitives" : [
                {
                    "attributes" : {
                        "POSITION" : 0,
                        "NORMAL" : 1,
                        "TEXCOORD_0" : 2
                    },
                    "indices" : 3,
                    "material" : 0
                }
            ]
        }
    ],
    "textures" : [
        {
            "source" : 0
        },
        {
            "sampler" : 0,
            "source" : 1
        },
        {
            "source" : 2
        }
    ],
    "images" : [
        {
            "bufferView" : 4,
            "mimeType" : "image/png",
            "name" : "pumpkin_low_uv_Default_OBJ.001_Normal"
        },
        {
            "bufferView" : 5,
            "mimeType" : "image/png",
            "name" : "pumpkin_low_uv_Default_OBJ (1).001_BaseColor"
        },
        {
            "bufferView" : 6,
            "mimeType" : "image/png",
            "name" : "pumpkin_low_uv_Default_OBJ.001_Roughness"
        }
    ],
    "accessors" : [
        {
            "bufferView" : 0,
            "componentType" : 5126,
            "count" : 1113,
            "max" : [
                0.4412693679332733,
                0.32885581254959106,
                0.45408231019973755
            ],
            "min" : [
                -0.4387606382369995,
                -0.5000810623168945,
                -0.44086429476737976
            ],
            "type" : "VEC3"
        },
        {
            "bufferView" : 1,
            "componentType" : 5126,
            "count" : 1113,
            "type" : "VEC3"
        },
        {
            "bufferView" : 2,
            "componentType" : 5126,
            "count" : 1113,
            "type" : "VEC2"
        },
        {
            "bufferView" : 3,
            "componentType" : 5123,
            "count" : 6498,
            "type" : "SCALAR"
        }
    ],
    "bufferViews" : [
        {
            "buffer" : 0,
            "byteLength" : 13356,
            "byteOffset" : 0
        },
        {
            "buffer" : 0,
            "byteLength" : 13356,
            "byteOffset" : 13356
        },
        {
            "buffer" : 0,
            "byteLength" : 8904,
            "byteOffset" : 26712
        },
        {
            "buffer" : 0,
            "byteLength" : 12996,
            "byteOffset" : 35616
        },
        {
            "buffer" : 0,
            "byteLength" : 22327,
            "byteOffset" : 48612
        },
        {
            "buffer" : 0,
            "byteLength" : 2114,
            "byteOffset" : 70940
        },
        {
            "buffer" : 0,
            "byteLength" : 4398,
            "byteOffset" : 73056
        }
    ],
    "samplers" : [
        {
            "magFilter" : 9728,
            "minFilter" : 9984
        }
    ],
    "buffers" : [
        {
            "byteLength" : 77456,
            "uri" : "data:application/octet-stream;base64,"
        }
    ]
}
